<svg xmlns="http://www.w3.org/2000/svg" width="28" height="25"><g fill="none" fill-rule="evenodd"><path d="M-6-8h40v40H-6z"/><path fill="#878787" d="M26.7 7.2c0-.5-.2-.7-.7-1L14.5.6 14 .4c-.2 0-.3 0-.5.2C9.7 2.6 5.8 4.4 2 6.2c-.5.3-.7.5-.7 1v2h25.3v-2zm-2.8 13v-9.5s0-.3-.7-.3h-4s-.3 0-.3.2v.5c.7 0 1 1 1 1v8h-6v-8l.7-1h.3-4c-.3 0-.4 0-.4.6 0 0 0 .3.3.4 0 0 1 .5 1 1v8H6.2v-8c0-.3.3-.7.6-.8.3 0 .4-.2.4-.4s0-.3-.4-.3H3s0 .4.4.5c.5 0 .8.4.8 1v7c-.5 0-1 .6-1 1v.8h22.6V21c0-.4-.5-1-1-1H24zm3 4.4H0c0-1 1-2 2-2h24c1 0 2 1 2 2z"/><text fill="#FFF" font-family="Roboto-Medium, Roboto" font-size="7" font-weight="400" transform="translate(-6 -8)"><tspan x="18.3" y="16">₹</tspan></text></g></svg>